<svg width="88" height="24" viewBox="0 0 88 24" fill="none" xmlns="http://www.w3.org/2000/svg">
    <path
        d="M6.61818 0.523438C5.74464 0.527795 4.88049 0.705107 4.07512 1.04528C3.26974 1.38545 2.5389 1.88185 1.92434 2.50604C1.30977 3.13023 0.823524 3.87004 0.493357 4.68319C0.16319 5.49634 -0.0044188 6.36692 8.85498e-05 7.24522V9.46546H5.37733V6.24878C5.37727 6.09771 5.40682 5.94811 5.46428 5.80853C5.52174 5.66895 5.60599 5.54212 5.71223 5.43529C5.81846 5.32846 5.94459 5.24376 6.08341 5.18595C6.22222 5.12815 6.37101 5.09842 6.52126 5.09845H6.71511C6.86537 5.09842 7.01416 5.12815 7.15299 5.18595C7.29182 5.24375 7.41796 5.32846 7.52421 5.43529C7.63046 5.54212 7.71474 5.66895 7.77223 5.80853C7.82972 5.94811 7.85929 6.0977 7.85926 6.24878V14.872C8.56542 14.872 9.26467 14.7321 9.91708 14.4604C10.5695 14.1888 11.1623 13.7905 11.6616 13.2885C12.161 12.7864 12.557 12.1905 12.8272 11.5345C13.0975 10.8785 13.2365 10.1755 13.2365 9.46546V7.24522C13.2403 5.46568 12.5434 3.75697 11.298 2.49253C10.6869 1.86857 9.95837 1.37312 9.15493 1.03506C8.35148 0.697 7.48915 0.523071 6.61818 0.523438V0.523438Z"
        fill="white" />
    <path
        d="M6.71537 19.242H6.52151C6.37128 19.2421 6.22252 19.2123 6.08372 19.1545C5.94492 19.0967 5.8188 19.012 5.71257 18.9052C5.60634 18.7984 5.52208 18.6716 5.46461 18.5321C5.40713 18.3925 5.37756 18.2429 5.37759 18.0919V9.46875C4.67142 9.46869 3.97215 9.60847 3.31973 9.88015C2.66731 10.1518 2.07451 10.5501 1.57517 11.0521C1.07584 11.5542 0.679746 12.1502 0.409536 12.8062C0.139325 13.4621 0.000286254 14.1652 0.00034702 14.8752V17.0645C-0.00861135 17.9441 0.155958 18.8167 0.484537 19.632C0.813116 20.4472 1.29918 21.1888 1.91463 21.814C2.53008 22.4392 3.26269 22.9354 4.07009 23.2741C4.8775 23.6128 5.74369 23.7872 6.61855 23.7872C7.49342 23.7872 8.35961 23.6128 9.16701 23.2741C9.97442 22.9354 10.707 22.4392 11.3225 21.814C11.9379 21.1888 12.424 20.4472 12.7526 19.632C13.0812 18.8167 13.2457 17.9441 13.2368 17.0645V14.8752H7.85952V18.0919C7.85952 18.2429 7.82992 18.3925 7.77242 18.5321C7.71492 18.6716 7.63063 18.7984 7.52439 18.9052C7.41814 19.0121 7.29201 19.0967 7.15319 19.1545C7.01438 19.2123 6.86561 19.2421 6.71537 19.242V19.242Z"
        fill="white" />
    <path d="M22.4256 7.34375H20.541V16.9566H26.0726V15.1442H22.4259L22.4256 7.34375Z" fill="white" />
    <path
        d="M32.1078 10.9005C31.842 10.5684 31.5016 10.3043 31.1146 10.1301C30.7276 9.95581 30.305 9.87629 29.8815 9.89804C29.439 9.89454 29.001 9.98654 28.5969 10.1678C28.1928 10.3491 27.8321 10.6155 27.5391 10.9489C26.9101 11.6575 26.5625 12.574 26.5625 13.5238C26.5625 14.4736 26.9101 15.3902 27.5391 16.0988C27.8322 16.4321 28.1929 16.6983 28.597 16.8795C29.0011 17.0607 29.4391 17.1526 29.8815 17.1492C30.8377 17.1492 31.5798 16.815 32.1078 16.1467V16.957H33.8699V10.0908H32.1078V10.9005ZM31.5686 14.9175C31.3909 15.0963 31.1786 15.2367 30.9449 15.33C30.7112 15.4233 30.4609 15.4674 30.2096 15.4598C29.9592 15.4679 29.7098 15.4239 29.4771 15.3306C29.2444 15.2373 29.0334 15.0966 28.8572 14.9175C28.5142 14.5351 28.3244 14.0384 28.3244 13.5235C28.3244 13.0085 28.5142 12.5119 28.8572 12.1295C29.0334 11.9505 29.2445 11.8099 29.4772 11.7167C29.7099 11.6234 29.9592 11.5793 30.2096 11.5873C30.4609 11.5798 30.7111 11.6241 30.9448 11.7173C31.1785 11.8105 31.3908 11.9508 31.5686 12.1295C31.9155 12.51 32.1078 13.0073 32.1078 13.5235C32.1078 14.0396 31.9155 14.537 31.5686 14.9175V14.9175Z"
        fill="white" />
    <path
        d="M38.4063 14.7048L36.6251 10.0898H34.6992L37.4983 16.7367C37.3812 17.1333 37.1508 17.4867 36.8358 17.7529C36.5048 17.9786 36.1076 18.0851 35.7087 18.0552V19.7033C36.4864 19.7756 37.2639 19.5633 37.8983 19.1053C38.4843 18.6606 38.9551 17.9482 39.3106 16.9679L41.8003 10.0903H39.9155L38.4063 14.7048Z"
        fill="white" />
    <path
        d="M45.6174 9.89669C45.137 9.87971 44.6584 9.96308 44.2118 10.1416C43.7651 10.3201 43.3602 10.5899 43.0226 10.9338C42.3706 11.6385 42.0092 12.566 42.0117 13.5284C42.0142 14.4909 42.3803 15.4164 43.036 16.1177C43.719 16.8041 44.625 17.1474 45.7541 17.1476C47.0649 17.1476 48.0574 16.6579 48.7315 15.6785L47.3112 14.8543C47.1306 15.0847 46.897 15.2676 46.6305 15.3872C46.364 15.5068 46.0726 15.5596 45.7814 15.5409C44.7341 15.5409 44.0921 15.1107 43.8554 14.2502H49.0047C49.0487 14.01 49.0716 13.7663 49.073 13.522C49.0991 12.5656 48.7481 11.6376 48.0965 10.9403C47.781 10.599 47.3966 10.3293 46.969 10.1493C46.5415 9.96935 46.0807 9.88323 45.6174 9.89669ZM43.8283 12.8768C43.9062 12.4733 44.1239 12.1108 44.4427 11.8535C44.7817 11.6015 45.1959 11.4732 45.6172 11.4896C46.0022 11.4846 46.3784 11.6051 46.6896 11.8332C47.0205 12.0894 47.2426 12.4623 47.311 12.8766L43.8283 12.8768Z"
        fill="white" />
    <path
        d="M52.0628 11.2714V10.0901H50.3008V16.9565H52.0628V13.6745C52.0628 13.0153 52.2745 12.5438 52.6978 12.2599C53.1217 11.976 53.6347 11.8587 54.139 11.9303V9.95333C53.6961 9.94767 53.2598 10.0615 52.8755 10.2829C52.4959 10.5043 52.2077 10.8549 52.0628 11.2714Z"
        fill="white" />
    <path
        d="M62.7294 8.83046V7.34375H56.4622V9.15657H60.3414L56.3613 15.4426V16.9563H62.8055V15.144H58.7489L62.7294 8.83046Z"
        fill="white" />
    <path
        d="M66.9673 9.89669C66.4869 9.87971 66.0083 9.96309 65.5616 10.1416C65.1149 10.3201 64.7099 10.5899 64.3722 10.9338C63.7202 11.6385 63.3588 12.566 63.3613 13.5285C63.3639 14.491 63.7301 15.4165 64.3859 16.1177C65.0689 16.8041 65.9749 17.1474 67.1038 17.1476C68.4146 17.1476 69.4072 16.6579 70.0814 15.6785L68.6608 14.8543C68.4803 15.0847 68.2467 15.2676 67.9803 15.3872C67.7138 15.5068 67.4225 15.5596 67.1313 15.5409C66.0839 15.5409 65.4419 15.1107 65.2055 14.2502H70.3549C70.3987 14.01 70.4214 13.7663 70.4229 13.522C70.449 12.5656 70.098 11.6376 69.4464 10.9403C69.1309 10.599 68.7465 10.3293 68.319 10.1493C67.8914 9.96935 67.4306 9.88322 66.9673 9.89669V9.89669ZM65.1782 12.8768C65.2562 12.4733 65.4739 12.1107 65.7928 11.8535C66.1318 11.6014 66.5461 11.4731 66.9673 11.4896C67.3523 11.4845 67.7286 11.605 68.0397 11.8332C68.3707 12.0894 68.5926 12.4623 68.6608 12.8766L65.1782 12.8768Z"
        fill="white" />
    <path
        d="M73.4124 11.2714V10.0901H71.6504V16.9565H73.4124V13.6745C73.4124 13.0153 73.6241 12.5438 74.0474 12.2599C74.4713 11.976 74.9841 11.8587 75.4884 11.9303V9.95332C75.0456 9.94772 74.6093 10.0615 74.2251 10.2829C73.8455 10.5043 73.5573 10.8549 73.4124 11.2714V11.2714Z"
        fill="white" />
    <path
        d="M79.5035 9.89545C78.6767 9.90462 77.8787 10.2012 77.2448 10.7348C76.6108 11.2685 76.1801 12.0062 76.0258 12.8229C75.8715 13.6395 76.003 14.4847 76.3981 15.2149C76.7932 15.9451 77.4275 16.5153 78.1933 16.8286C78.959 17.142 79.8091 17.1792 80.599 16.934C81.389 16.6888 82.0702 16.1762 82.527 15.4834C82.9838 14.7905 83.1879 13.9601 83.1049 13.133C83.0218 12.306 82.6565 11.5333 82.0712 10.9463C81.7376 10.6037 81.3375 10.3336 80.8958 10.1528C80.4541 9.97204 79.9802 9.88445 79.5035 9.89545V9.89545ZM80.8283 14.8805C80.6555 15.0559 80.4488 15.1938 80.2209 15.2858C79.9931 15.3778 79.7489 15.4219 79.5035 15.4154C79.2589 15.4224 79.0155 15.3785 78.7886 15.2864C78.5617 15.1944 78.3561 15.0562 78.1849 14.8805C77.8467 14.5094 77.6591 14.0242 77.6591 13.5209C77.6591 13.0175 77.8467 12.5324 78.1849 12.1613C78.3561 11.9856 78.5617 11.8475 78.7886 11.7554C79.0155 11.6634 79.2589 11.6194 79.5035 11.6263C79.7489 11.6199 79.9931 11.664 80.2209 11.756C80.4487 11.848 80.6554 11.9859 80.8283 12.1613C81.1707 12.5303 81.3611 13.0162 81.3611 13.5209C81.3611 14.0255 81.1707 14.5115 80.8283 14.8805V14.8805Z"
        fill="white" />
    <path d="M86.8202 14.8438H84.6758V16.9587H86.8202V14.8438Z" fill="white" />
</svg>