<svg width="27" height="27" viewBox="0 0 27 27" fill="none" xmlns="http://www.w3.org/2000/svg">
<path d="M13.5 25.3125C10.3671 25.3125 7.36257 24.068 5.1473 21.8527C2.93203 19.6374 1.6875 16.6329 1.6875 13.5C1.6875 10.3671 2.93203 7.36257 5.1473 5.1473C7.36257 2.93203 10.3671 1.6875 13.5 1.6875C16.6329 1.6875 19.6374 2.93203 21.8527 5.1473C24.068 7.36257 25.3125 10.3671 25.3125 13.5C25.3125 16.6329 24.068 19.6374 21.8527 21.8527C19.6374 24.068 16.6329 25.3125 13.5 25.3125ZM13.5 27C17.0804 27 20.5142 25.5777 23.0459 23.0459C25.5777 20.5142 27 17.0804 27 13.5C27 9.91958 25.5777 6.4858 23.0459 3.95406C20.5142 1.42232 17.0804 0 13.5 0C9.91958 0 6.4858 1.42232 3.95406 3.95406C1.42232 6.4858 0 9.91958 0 13.5C0 17.0804 1.42232 20.5142 3.95406 23.0459C6.4858 25.5777 9.91958 27 13.5 27Z" fill="white"/>
<path d="M13.5 6.75C13.7238 6.75 13.9384 6.8389 14.0966 6.99713C14.2549 7.15536 14.3438 7.36997 14.3438 7.59375V12.6562H19.4062C19.63 12.6562 19.8446 12.7451 20.0029 12.9034C20.1611 13.0616 20.25 13.2762 20.25 13.5C20.25 13.7238 20.1611 13.9384 20.0029 14.0966C19.8446 14.2549 19.63 14.3438 19.4062 14.3438H14.3438V19.4062C14.3438 19.63 14.2549 19.8446 14.0966 20.0029C13.9384 20.1611 13.7238 20.25 13.5 20.25C13.2762 20.25 13.0616 20.1611 12.9034 20.0029C12.7451 19.8446 12.6562 19.63 12.6562 19.4062V14.3438H7.59375C7.36997 14.3438 7.15536 14.2549 6.99713 14.0966C6.8389 13.9384 6.75 13.7238 6.75 13.5C6.75 13.2762 6.8389 13.0616 6.99713 12.9034C7.15536 12.7451 7.36997 12.6562 7.59375 12.6562H12.6562V7.59375C12.6562 7.36997 12.7451 7.15536 12.9034 6.99713C13.0616 6.8389 13.2762 6.75 13.5 6.75Z" fill="white"/>
</svg>
