<svg viewBox="0 0 16 16" fill="none" xmlns="http://www.w3.org/2000/svg">
  <g clip-path="url(#clip0_2335_25686)">
    <path fill-rule="evenodd" clip-rule="evenodd" d="M12.1702 3.8283C10.8034 2.46146 8.58727 2.46146 7.22044 3.8283L6.08907 4.95967L5.38196 4.25256L6.51333 3.12119C8.27069 1.36383 11.1199 1.36383 12.8773 3.12119C14.6347 4.87855 14.6347 7.72779 12.8773 9.48515L11.7459 10.6165L11.0388 9.90941L12.1702 8.77804C13.537 7.41121 13.537 5.19513 12.1702 3.8283Z" fill="currentColor"/>
    <path fill-rule="evenodd" clip-rule="evenodd" d="M3.82591 12.1715C5.19274 13.5383 7.40882 13.5383 8.77565 12.1715L9.90703 11.0401L10.6141 11.7472L9.48276 12.8786C7.7254 14.6359 4.87616 14.6359 3.1188 12.8786C1.36144 11.1212 1.36144 8.27196 3.1188 6.51461L4.25017 5.38324L4.95728 6.09034L3.82591 7.22171C2.45907 8.58855 2.45907 10.8046 3.82591 12.1715Z" fill="currentColor"/>
    <path fill-rule="evenodd" clip-rule="evenodd" d="M5.94964 9.34333L9.34375 5.94922L10.0509 6.65633L6.65674 10.0504L5.94964 9.34333Z" fill="currentColor"/>
  </g>
  <defs>
    <clipPath id="clip0_2335_25686">
      <rect width="16" height="16" fill="currentColor"/>
    </clipPath>
  </defs>
</svg>
