<svg  viewBox="0 0 16 17" fill="none" xmlns="http://www.w3.org/2000/svg">
<path d="M14.9019 4.75196C14.9323 4.80129 14.9532 4.85288 14.9694 4.90488C14.9727 4.91722 14.9753 4.92975 14.9781 4.94168C14.989 4.98545 14.9954 5.02898 14.9963 5.07317C14.9969 5.08098 14.9998 5.08838 14.9998 5.0966L15 11.9044C15 12.1512 14.86 12.3792 14.6331 12.5025L8.3668 15.9073C8.35806 15.912 8.3478 15.9135 8.33841 15.918C8.29975 15.9373 8.25913 15.9535 8.21698 15.9655C8.20191 15.9696 8.18728 15.9751 8.17155 15.9788C8.11673 15.9912 8.05995 15.9996 8.0012 16H7.99967M14.9019 4.75196C14.8715 4.70263 14.8344 4.65988 14.7942 4.62083C14.7848 4.61158 14.7746 4.60336 14.7643 4.59452C14.73 4.56451 14.6929 4.53779 14.6538 4.51477C14.6459 4.51025 14.6407 4.50367 14.6322 4.49915L8.367 1.09273C8.13944 0.969399 7.86011 0.968784 7.6332 1.09273L1.3669 4.49836C1.3586 4.50288 1.3527 4.50946 1.34484 4.51398C1.30618 4.537 1.26993 4.56331 1.23564 4.59311C1.22538 4.60236 1.21468 4.61058 1.20485 4.62025C1.16467 4.6593 1.12798 4.70226 1.09828 4.75097M14.9019 4.75196L8 8.5M1.09828 4.75097C1.06792 4.8003 1.04739 4.85189 1.03079 4.90431C1.0273 4.91582 1.0249 4.92815 1.02206 4.94028C1.01136 4.98447 1.00502 5.02866 1.00349 5.07326C1.00306 5.08107 1 5.08847 1 5.09628V11.9046C1 12.1515 1.13999 12.3792 1.3669 12.5027L7.6332 15.9075C7.64106 15.9116 7.64936 15.9131 7.65723 15.9172C7.69785 15.9375 7.74044 15.954 7.78543 15.9669C7.79918 15.971 7.81229 15.9757 7.82648 15.9784C7.88217 15.9914 7.93939 16 7.99967 16M1.09828 4.75097L8 8.5M7.99967 16L8 8.5" stroke="currentColor"/>
</svg>
