<svg  viewBox="0 0 14 14" fill="none" xmlns="http://www.w3.org/2000/svg">
    <circle cx="7" cy="7" r="6.5" stroke="currentColor" stroke-linecap="round" stroke-linejoin="round" />
    <path
        d="M10.5 7C10.5 8.8621 10.0676 10.5233 9.39431 11.7017C8.71289 12.8942 7.84771 13.5 7 13.5C6.15229 13.5 5.28711 12.8942 4.60569 11.7017C3.93236 10.5233 3.5 8.8621 3.5 7C3.5 5.1379 3.93236 3.47666 4.60569 2.29832C5.28711 1.10584 6.15229 0.5 7 0.5C7.84771 0.5 8.71289 1.10584 9.39431 2.29832C10.0676 3.47666 10.5 5.1379 10.5 7Z"
        stroke="currentColor" stroke-linecap="round" stroke-linejoin="round" />
    <path d="M7 0V14" stroke="currentColor" />
    <path d="M14 7L0 7" stroke="currentColor" />
</svg>
